<svg xmlns="http://www.w3.org/2000/svg" xmlns:xlink="http://www.w3.org/1999/xlink" width="256" zoomAndPan="magnify" viewBox="0 0 192 191.999996" height="256" preserveAspectRatio="xMidYMid meet" version="1.0"><defs><g/><clipPath id="f03a57936e"><path d="M 96 0 C 42.980469 0 0 42.980469 0 96 C 0 149.019531 42.980469 192 96 192 C 149.019531 192 192 149.019531 192 96 C 192 42.980469 149.019531 0 96 0 Z M 96 0 " clip-rule="nonzero"/></clipPath><clipPath id="468668d34f"><path d="M 124.511719 71.957031 L 172.800781 71.957031 L 172.800781 120.042969 L 124.511719 120.042969 Z M 124.511719 71.957031 " clip-rule="nonzero"/></clipPath><clipPath id="7d0b063e79"><path d="M 0.511719 0.957031 L 48.800781 0.957031 L 48.800781 49.042969 L 0.511719 49.042969 Z M 0.511719 0.957031 " clip-rule="nonzero"/></clipPath><clipPath id="3a08cec1d0"><rect x="0" width="49" y="0" height="50"/></clipPath><clipPath id="1f2fabd374"><path d="M 0.28125 1 L 16 1 L 16 33 L 0.28125 33 Z M 0.28125 1 " clip-rule="nonzero"/></clipPath><clipPath id="b6fc90c4a4"><rect x="0" width="98" y="0" height="42"/></clipPath><clipPath id="f4ae0de8b2"><path d="M 0.078125 4 L 8 4 L 8 16 L 0.078125 16 Z M 0.078125 4 " clip-rule="nonzero"/></clipPath><clipPath id="a7146a1575"><path d="M 7 19 L 15 19 L 15 30.878906 L 7 30.878906 Z M 7 19 " clip-rule="nonzero"/></clipPath><clipPath id="a6b7a15df7"><rect x="0" width="38" y="0" height="31"/></clipPath></defs><g clip-path="url(#f03a57936e)"><rect x="-19.2" width="230.4" fill="#000000" y="-19.2" height="230.399995" fill-opacity="1"/></g><g clip-path="url(#468668d34f)"><g transform="matrix(1, 0, 0, 1, 124, 71)"><g clip-path="url(#3a08cec1d0)"><g clip-path="url(#7d0b063e79)"><path fill="#ff3131" d="M 0.511719 0.957031 L 48.789062 0.957031 L 48.789062 49.042969 L 0.511719 49.042969 Z M 0.511719 0.957031 " fill-opacity="1" fill-rule="nonzero"/></g></g></g></g><g transform="matrix(1, 0, 0, 1, 17, 75)"><g clip-path="url(#b6fc90c4a4)"><g clip-path="url(#1f2fabd374)"><g fill="#ffffff" fill-opacity="1"><g transform="translate(2.200001, 31.700929)"><g><path d="M 1.453125 -22.796875 C 1.453125 -23.015625 1.429688 -23.351562 1.390625 -23.8125 C 1.347656 -24.28125 1.234375 -24.765625 1.046875 -25.265625 C 0.867188 -25.773438 0.578125 -26.210938 0.171875 -26.578125 C -0.222656 -26.941406 -0.785156 -27.125 -1.515625 -27.125 L -1.515625 -27.265625 C -0.765625 -27.304688 0.0351562 -27.441406 0.890625 -27.671875 C 1.742188 -27.910156 2.585938 -28.203125 3.421875 -28.546875 C 4.265625 -28.898438 5.050781 -29.265625 5.78125 -29.640625 C 6.519531 -30.015625 7.144531 -30.351562 7.65625 -30.65625 L 7.65625 -8.53125 C 7.65625 -7.15625 7.851562 -6.234375 8.25 -5.765625 C 8.65625 -5.304688 9.234375 -5.078125 9.984375 -5.078125 C 10.441406 -5.078125 10.851562 -5.164062 11.21875 -5.34375 C 11.582031 -5.53125 11.90625 -5.785156 12.1875 -6.109375 C 12.28125 -5.203125 12.4375 -4.320312 12.65625 -3.46875 C 12.882812 -2.625 13.082031 -1.859375 13.25 -1.171875 C 12.738281 -0.691406 12.03125 -0.300781 11.125 0 C 10.21875 0.300781 9.28125 0.453125 8.3125 0.453125 C 6.050781 0.453125 4.347656 -0.203125 3.203125 -1.515625 C 2.054688 -2.835938 1.484375 -4.722656 1.484375 -7.171875 C 1.484375 -7.171875 1.484375 -7.4375 1.484375 -7.96875 C 1.484375 -8.5 1.484375 -9.207031 1.484375 -10.09375 C 1.484375 -10.976562 1.484375 -11.957031 1.484375 -13.03125 C 1.484375 -14.113281 1.476562 -15.195312 1.46875 -16.28125 C 1.457031 -17.375 1.453125 -18.390625 1.453125 -19.328125 C 1.453125 -20.265625 1.453125 -21.046875 1.453125 -21.671875 C 1.453125 -22.296875 1.453125 -22.671875 1.453125 -22.796875 Z M 1.453125 -22.796875 "/></g></g></g></g><g fill="#ffffff" fill-opacity="1"><g transform="translate(15.439772, 31.700929)"><g><path d="M 1.453125 -13.75 C 1.453125 -13.976562 1.429688 -14.320312 1.390625 -14.78125 C 1.347656 -15.25 1.234375 -15.734375 1.046875 -16.234375 C 0.867188 -16.734375 0.578125 -17.164062 0.171875 -17.53125 C -0.222656 -17.894531 -0.785156 -18.078125 -1.515625 -18.078125 L -1.515625 -18.234375 C -0.765625 -18.273438 0.0351562 -18.410156 0.890625 -18.640625 C 1.742188 -18.867188 2.585938 -19.160156 3.421875 -19.515625 C 4.265625 -19.867188 5.050781 -20.226562 5.78125 -20.59375 C 6.519531 -20.96875 7.144531 -21.3125 7.65625 -21.625 L 7.65625 -7.828125 C 7.65625 -6.859375 7.90625 -6.113281 8.40625 -5.59375 C 8.90625 -5.070312 9.53125 -4.8125 10.28125 -4.8125 C 11.226562 -4.8125 11.953125 -5.113281 12.453125 -5.71875 C 12.960938 -6.320312 13.328125 -6.96875 13.546875 -7.65625 L 13.546875 -13.75 C 13.546875 -13.976562 13.523438 -14.320312 13.484375 -14.78125 C 13.441406 -15.25 13.328125 -15.734375 13.140625 -16.234375 C 12.960938 -16.734375 12.671875 -17.164062 12.265625 -17.53125 C 11.867188 -17.894531 11.304688 -18.078125 10.578125 -18.078125 L 10.578125 -18.234375 C 11.328125 -18.273438 12.128906 -18.410156 12.984375 -18.640625 C 13.835938 -18.867188 14.679688 -19.160156 15.515625 -19.515625 C 16.359375 -19.867188 17.144531 -20.226562 17.875 -20.59375 C 18.613281 -20.96875 19.238281 -21.3125 19.75 -21.625 L 19.75 -15.109375 C 19.75 -13.742188 19.75 -12.394531 19.75 -11.0625 C 19.75 -9.726562 19.75 -8.207031 19.75 -6.5 C 19.75 -5.9375 19.796875 -5.367188 19.890625 -4.796875 C 19.992188 -4.234375 20.210938 -3.765625 20.546875 -3.390625 C 20.878906 -3.023438 21.40625 -2.84375 22.125 -2.84375 L 22.125 -2.6875 C 21.539062 -2.382812 20.925781 -2.050781 20.28125 -1.6875 C 19.632812 -1.332031 19.015625 -0.992188 18.421875 -0.671875 C 17.828125 -0.347656 17.300781 -0.0820312 16.84375 0.125 C 16.394531 0.34375 16.082031 0.453125 15.90625 0.453125 C 15.394531 0.453125 14.960938 0.242188 14.609375 -0.171875 C 14.265625 -0.597656 14 -1.128906 13.8125 -1.765625 C 13.632812 -2.398438 13.546875 -3.019531 13.546875 -3.625 L 13.546875 -6.5 L 10.46875 -0.328125 C 10.082031 -0.109375 9.65625 0.0703125 9.1875 0.21875 C 8.726562 0.375 8.21875 0.453125 7.65625 0.453125 C 5.738281 0.453125 4.222656 -0.101562 3.109375 -1.21875 C 2.003906 -2.34375 1.453125 -4.039062 1.453125 -6.3125 Z M 1.453125 -13.75 "/></g></g></g><g fill="#ffffff" fill-opacity="1"><g transform="translate(36.961957, 31.700929)"><g><path d="M -1.203125 -18.078125 L -1.203125 -18.234375 C -0.460938 -18.273438 0.332031 -18.410156 1.1875 -18.640625 C 2.050781 -18.867188 2.898438 -19.160156 3.734375 -19.515625 C 4.566406 -19.867188 5.351562 -20.226562 6.09375 -20.59375 C 6.832031 -20.96875 7.453125 -21.3125 7.953125 -21.625 L 7.953125 -14.65625 L 11.03125 -20.828125 C 11.4375 -21.046875 11.863281 -21.234375 12.3125 -21.390625 C 12.769531 -21.546875 13.28125 -21.625 13.84375 -21.625 C 15.757812 -21.625 17.269531 -21.0625 18.375 -19.9375 C 19.488281 -18.820312 20.046875 -17.125 20.046875 -14.84375 L 20.046875 -3.78125 C 20.046875 -3.03125 20.132812 -2.285156 20.3125 -1.546875 C 20.5 -0.816406 20.765625 -0.300781 21.109375 0 L 12.796875 0 C 13.128906 -0.300781 13.382812 -0.8125 13.5625 -1.53125 C 13.75 -2.257812 13.84375 -3 13.84375 -3.75 L 13.84375 -13.328125 C 13.84375 -14.296875 13.585938 -15.039062 13.078125 -15.5625 C 12.578125 -16.09375 11.957031 -16.359375 11.21875 -16.359375 C 10.269531 -16.359375 9.539062 -16.054688 9.03125 -15.453125 C 8.53125 -14.847656 8.171875 -14.191406 7.953125 -13.484375 L 7.953125 -3.78125 C 7.953125 -3.03125 8.039062 -2.285156 8.21875 -1.546875 C 8.40625 -0.816406 8.671875 -0.300781 9.015625 0 L 0.703125 0 C 1.035156 -0.300781 1.289062 -0.8125 1.46875 -1.53125 C 1.65625 -2.257812 1.75 -3 1.75 -3.75 L 1.75 -13.75 C 1.75 -13.976562 1.726562 -14.320312 1.6875 -14.78125 C 1.644531 -15.25 1.535156 -15.734375 1.359375 -16.234375 C 1.179688 -16.734375 0.890625 -17.164062 0.484375 -17.53125 C 0.078125 -17.894531 -0.484375 -18.078125 -1.203125 -18.078125 Z M -1.203125 -18.078125 "/></g></g></g><g fill="#ffffff" fill-opacity="1"><g transform="translate(58.665507, 31.700929)"><g><path d="M 0.296875 -18.171875 C 1.242188 -19.296875 2.382812 -20.148438 3.71875 -20.734375 C 5.050781 -21.328125 6.570312 -21.625 8.28125 -21.625 C 9.738281 -21.625 11.125 -21.429688 12.4375 -21.046875 C 13.757812 -20.660156 14.929688 -20.082031 15.953125 -19.3125 C 16.984375 -18.550781 17.800781 -17.609375 18.40625 -16.484375 C 19.007812 -15.367188 19.3125 -14.066406 19.3125 -12.578125 L 19.3125 -6.5 C 19.3125 -5.9375 19.363281 -5.367188 19.46875 -4.796875 C 19.570312 -4.234375 19.789062 -3.765625 20.125 -3.390625 C 20.457031 -3.023438 20.984375 -2.84375 21.703125 -2.84375 L 21.703125 -2.6875 C 21.117188 -2.382812 20.503906 -2.050781 19.859375 -1.6875 C 19.210938 -1.332031 18.59375 -0.992188 18 -0.671875 C 17.40625 -0.347656 16.878906 -0.0820312 16.421875 0.125 C 15.972656 0.34375 15.660156 0.453125 15.484375 0.453125 C 14.972656 0.453125 14.539062 0.242188 14.1875 -0.171875 C 13.84375 -0.597656 13.578125 -1.128906 13.390625 -1.765625 C 13.210938 -2.398438 13.125 -3.019531 13.125 -3.625 L 13.125 -6.828125 C 12.738281 -6.222656 12.304688 -5.554688 11.828125 -4.828125 C 11.359375 -4.109375 10.90625 -3.40625 10.46875 -2.71875 C 10.039062 -2.03125 9.675781 -1.457031 9.375 -1 C 9.226562 -0.757812 8.851562 -0.457031 8.25 -0.09375 C 7.644531 0.269531 6.929688 0.453125 6.109375 0.453125 C 4.859375 0.453125 3.835938 0.199219 3.046875 -0.296875 C 2.265625 -0.804688 1.695312 -1.476562 1.34375 -2.3125 C 0.988281 -3.144531 0.8125 -4.078125 0.8125 -5.109375 C 0.8125 -6.179688 1.054688 -7.175781 1.546875 -8.09375 C 2.046875 -9.007812 2.71875 -9.8125 3.5625 -10.5 C 4.414062 -11.195312 5.375 -11.742188 6.4375 -12.140625 C 7.507812 -12.535156 8.628906 -12.734375 9.796875 -12.734375 C 10.984375 -12.734375 12.039062 -12.519531 12.96875 -12.09375 C 12.707031 -13.28125 12.164062 -14.210938 11.34375 -14.890625 C 10.53125 -15.566406 9.53125 -15.90625 8.34375 -15.90625 C 7.257812 -15.90625 6.285156 -15.703125 5.421875 -15.296875 C 4.566406 -14.890625 3.859375 -14.253906 3.296875 -13.390625 C 2.804688 -14.335938 2.328125 -15.171875 1.859375 -15.890625 C 1.398438 -16.609375 0.878906 -17.367188 0.296875 -18.171875 Z M 7.25 -7.4375 C 7.25 -6.957031 7.410156 -6.503906 7.734375 -6.078125 C 8.054688 -5.648438 8.625 -5.4375 9.4375 -5.4375 C 10.132812 -5.4375 10.8125 -5.65625 11.46875 -6.09375 C 12.125 -6.539062 12.675781 -7.148438 13.125 -7.921875 L 13.125 -10.609375 C 13.125 -10.773438 13.117188 -10.941406 13.109375 -11.109375 C 13.097656 -11.285156 13.082031 -11.441406 13.0625 -11.578125 C 12.882812 -11.679688 12.6875 -11.753906 12.46875 -11.796875 C 12.257812 -11.847656 12.035156 -11.875 11.796875 -11.875 C 10.941406 -11.875 10.171875 -11.632812 9.484375 -11.15625 C 8.804688 -10.675781 8.265625 -10.09375 7.859375 -9.40625 C 7.453125 -8.71875 7.25 -8.0625 7.25 -7.4375 Z M 7.25 -7.4375 "/></g></g></g><g fill="#ffffff" fill-opacity="1"><g transform="translate(79.462225, 31.700929)"><g><path d="M -1.203125 -18.234375 C -0.460938 -18.273438 0.332031 -18.410156 1.1875 -18.640625 C 2.050781 -18.867188 2.898438 -19.160156 3.734375 -19.515625 C 4.566406 -19.867188 5.351562 -20.226562 6.09375 -20.59375 C 6.832031 -20.96875 7.453125 -21.3125 7.953125 -21.625 L 7.953125 -15.6875 C 8.085938 -16.351562 8.3125 -17.035156 8.625 -17.734375 C 8.9375 -18.429688 9.328125 -19.070312 9.796875 -19.65625 C 10.273438 -20.238281 10.835938 -20.710938 11.484375 -21.078125 C 12.128906 -21.441406 12.847656 -21.625 13.640625 -21.625 C 14.242188 -21.625 14.832031 -21.503906 15.40625 -21.265625 C 15.976562 -21.035156 16.363281 -20.789062 16.5625 -20.53125 C 16.28125 -19.601562 16.007812 -18.601562 15.75 -17.53125 C 15.488281 -16.46875 15.273438 -15.429688 15.109375 -14.421875 C 14.867188 -14.847656 14.375 -15.21875 13.625 -15.53125 C 12.882812 -15.84375 12.125 -16 11.34375 -16 C 9.082031 -16 7.953125 -15.140625 7.953125 -13.421875 L 7.953125 -3.78125 C 7.953125 -3.03125 8.039062 -2.285156 8.21875 -1.546875 C 8.40625 -0.816406 8.671875 -0.300781 9.015625 0 L 0.703125 0 C 1.035156 -0.300781 1.289062 -0.8125 1.46875 -1.53125 C 1.65625 -2.257812 1.75 -3 1.75 -3.75 L 1.75 -13.75 C 1.75 -13.976562 1.726562 -14.320312 1.6875 -14.78125 C 1.644531 -15.25 1.535156 -15.734375 1.359375 -16.234375 C 1.179688 -16.734375 0.890625 -17.164062 0.484375 -17.53125 C 0.078125 -17.894531 -0.484375 -18.078125 -1.203125 -18.078125 Z M -1.203125 -18.234375 "/></g></g></g></g></g><g transform="matrix(1, 0, 0, 1, 130, 80)"><g clip-path="url(#a6b7a15df7)"><g clip-path="url(#f4ae0de8b2)"><g fill="#ffffff" fill-opacity="1"><g transform="translate(0.341855, 12.137354)"><g><path d="M 3.203125 3.15625 L 0.21875 3.15625 C 0.34375 3.039062 0.4375 2.851562 0.5 2.59375 C 0.5625 2.332031 0.59375 2.066406 0.59375 1.796875 L 0.59375 -6.25 C 0.59375 -6.53125 0.5625 -6.796875 0.5 -7.046875 C 0.4375 -7.304688 0.34375 -7.492188 0.21875 -7.609375 L 3.734375 -7.609375 C 4.429688 -7.609375 5.007812 -7.5 5.46875 -7.28125 C 5.925781 -7.0625 6.285156 -6.769531 6.546875 -6.40625 C 6.816406 -6.039062 7.003906 -5.628906 7.109375 -5.171875 C 7.222656 -4.722656 7.28125 -4.265625 7.28125 -3.796875 C 7.28125 -3.335938 7.234375 -2.878906 7.140625 -2.421875 C 7.046875 -1.960938 6.898438 -1.535156 6.703125 -1.140625 C 6.503906 -0.742188 6.25 -0.425781 5.9375 -0.1875 C 5.625 0.0390625 5.253906 0.15625 4.828125 0.15625 C 4.585938 0.15625 4.363281 0.117188 4.15625 0.046875 C 3.957031 -0.0234375 3.789062 -0.128906 3.65625 -0.265625 L 2.828125 -2.40625 L 2.828125 1.796875 C 2.828125 2.066406 2.859375 2.332031 2.921875 2.59375 C 2.984375 2.851562 3.078125 3.039062 3.203125 3.15625 Z M 3.46875 -5.53125 C 3.351562 -5.53125 3.238281 -5.523438 3.125 -5.515625 C 3.019531 -5.515625 2.921875 -5.5 2.828125 -5.46875 L 2.828125 -2.78125 C 2.953125 -2.53125 3.109375 -2.320312 3.296875 -2.15625 C 3.484375 -1.988281 3.734375 -1.90625 4.046875 -1.90625 C 4.734375 -1.90625 5.078125 -2.472656 5.078125 -3.609375 C 5.078125 -4.160156 4.945312 -4.617188 4.6875 -4.984375 C 4.425781 -5.347656 4.019531 -5.53125 3.46875 -5.53125 Z M 3.46875 -5.53125 "/></g></g></g></g><g fill="#ffffff" fill-opacity="1"><g transform="translate(7.938989, 12.137354)"><g><path d="M -0.4375 -9.8125 C -0.164062 -9.820312 0.117188 -9.867188 0.421875 -9.953125 C 0.734375 -10.035156 1.039062 -10.140625 1.34375 -10.265625 C 1.644531 -10.390625 1.925781 -10.519531 2.1875 -10.65625 C 2.445312 -10.789062 2.671875 -10.910156 2.859375 -11.015625 L 2.859375 -5.265625 L 3.96875 -7.484375 C 4.113281 -7.566406 4.265625 -7.632812 4.421875 -7.6875 C 4.585938 -7.738281 4.769531 -7.765625 4.96875 -7.765625 C 5.65625 -7.765625 6.195312 -7.5625 6.59375 -7.15625 C 7 -6.757812 7.203125 -6.148438 7.203125 -5.328125 L 7.203125 -1.359375 C 7.203125 -1.085938 7.234375 -0.816406 7.296875 -0.546875 C 7.359375 -0.285156 7.453125 -0.101562 7.578125 0 L 4.59375 0 C 4.71875 -0.101562 4.8125 -0.285156 4.875 -0.546875 C 4.9375 -0.804688 4.96875 -1.070312 4.96875 -1.34375 L 4.96875 -4.78125 C 4.96875 -5.132812 4.878906 -5.40625 4.703125 -5.59375 C 4.523438 -5.78125 4.300781 -5.875 4.03125 -5.875 C 3.6875 -5.875 3.421875 -5.765625 3.234375 -5.546875 C 3.054688 -5.328125 2.929688 -5.09375 2.859375 -4.84375 L 2.859375 -1.359375 C 2.859375 -1.085938 2.890625 -0.816406 2.953125 -0.546875 C 3.015625 -0.285156 3.109375 -0.101562 3.234375 0 L 0.25 0 C 0.375 -0.101562 0.46875 -0.285156 0.53125 -0.546875 C 0.59375 -0.804688 0.625 -1.070312 0.625 -1.34375 L 0.625 -8.203125 C 0.625 -8.273438 0.617188 -8.394531 0.609375 -8.5625 C 0.597656 -8.726562 0.554688 -8.898438 0.484375 -9.078125 C 0.421875 -9.265625 0.316406 -9.421875 0.171875 -9.546875 C 0.0234375 -9.679688 -0.175781 -9.75 -0.4375 -9.75 Z M -0.4375 -9.8125 "/></g></g></g><g fill="#ffffff" fill-opacity="1"><g transform="translate(15.731475, 12.137354)"><g><path d="M 4 0.15625 C 3.269531 0.15625 2.628906 -0.00390625 2.078125 -0.328125 C 1.523438 -0.660156 1.09375 -1.125 0.78125 -1.71875 C 0.476562 -2.3125 0.328125 -3.003906 0.328125 -3.796875 C 0.328125 -4.597656 0.476562 -5.296875 0.78125 -5.890625 C 1.09375 -6.484375 1.523438 -6.941406 2.078125 -7.265625 C 2.628906 -7.597656 3.269531 -7.765625 4 -7.765625 C 4.738281 -7.765625 5.382812 -7.597656 5.9375 -7.265625 C 6.5 -6.941406 6.929688 -6.484375 7.234375 -5.890625 C 7.546875 -5.296875 7.703125 -4.597656 7.703125 -3.796875 C 7.703125 -3.003906 7.546875 -2.3125 7.234375 -1.71875 C 6.929688 -1.125 6.5 -0.660156 5.9375 -0.328125 C 5.382812 -0.00390625 4.738281 0.15625 4 0.15625 Z M 2.609375 -3.796875 C 2.609375 -3.222656 2.734375 -2.757812 2.984375 -2.40625 C 3.234375 -2.0625 3.570312 -1.890625 4 -1.890625 C 4.4375 -1.890625 4.78125 -2.0625 5.03125 -2.40625 C 5.289062 -2.757812 5.421875 -3.222656 5.421875 -3.796875 C 5.421875 -4.367188 5.289062 -4.828125 5.03125 -5.171875 C 4.78125 -5.523438 4.4375 -5.703125 4 -5.703125 C 3.570312 -5.703125 3.234375 -5.523438 2.984375 -5.171875 C 2.734375 -4.828125 2.609375 -4.367188 2.609375 -3.796875 Z M 2.609375 -3.796875 "/></g></g></g><g fill="#ffffff" fill-opacity="1"><g transform="translate(23.751874, 12.137354)"><g><path d="M 0 -5.53125 L 0 -7.609375 C 0.195312 -7.691406 0.425781 -7.8125 0.6875 -7.96875 C 0.945312 -8.125 1.207031 -8.304688 1.46875 -8.515625 C 1.738281 -8.734375 1.988281 -8.957031 2.21875 -9.1875 C 2.457031 -9.414062 2.648438 -9.632812 2.796875 -9.84375 L 2.859375 -9.84375 L 2.859375 -7.609375 L 4.5 -7.609375 L 4.5 -5.53125 L 2.859375 -5.53125 L 2.859375 -3.078125 C 2.859375 -2.578125 2.929688 -2.242188 3.078125 -2.078125 C 3.222656 -1.910156 3.425781 -1.828125 3.6875 -1.828125 C 3.851562 -1.828125 4 -1.859375 4.125 -1.921875 C 4.257812 -1.992188 4.378906 -2.085938 4.484375 -2.203125 C 4.523438 -1.878906 4.582031 -1.5625 4.65625 -1.25 C 4.738281 -0.945312 4.804688 -0.675781 4.859375 -0.4375 C 4.679688 -0.257812 4.425781 -0.113281 4.09375 0 C 3.769531 0.101562 3.4375 0.15625 3.09375 0.15625 C 2.28125 0.15625 1.664062 -0.078125 1.25 -0.546875 C 0.84375 -1.023438 0.640625 -1.703125 0.640625 -2.578125 L 0.640625 -5.53125 Z M 0 -5.53125 "/></g></g></g><g fill="#ffffff" fill-opacity="1"><g transform="translate(28.939631, 12.137354)"><g><path d="M 4 0.15625 C 3.269531 0.15625 2.628906 -0.00390625 2.078125 -0.328125 C 1.523438 -0.660156 1.09375 -1.125 0.78125 -1.71875 C 0.476562 -2.3125 0.328125 -3.003906 0.328125 -3.796875 C 0.328125 -4.597656 0.476562 -5.296875 0.78125 -5.890625 C 1.09375 -6.484375 1.523438 -6.941406 2.078125 -7.265625 C 2.628906 -7.597656 3.269531 -7.765625 4 -7.765625 C 4.738281 -7.765625 5.382812 -7.597656 5.9375 -7.265625 C 6.5 -6.941406 6.929688 -6.484375 7.234375 -5.890625 C 7.546875 -5.296875 7.703125 -4.597656 7.703125 -3.796875 C 7.703125 -3.003906 7.546875 -2.3125 7.234375 -1.71875 C 6.929688 -1.125 6.5 -0.660156 5.9375 -0.328125 C 5.382812 -0.00390625 4.738281 0.15625 4 0.15625 Z M 2.609375 -3.796875 C 2.609375 -3.222656 2.734375 -2.757812 2.984375 -2.40625 C 3.234375 -2.0625 3.570312 -1.890625 4 -1.890625 C 4.4375 -1.890625 4.78125 -2.0625 5.03125 -2.40625 C 5.289062 -2.757812 5.421875 -3.222656 5.421875 -3.796875 C 5.421875 -4.367188 5.289062 -4.828125 5.03125 -5.171875 C 4.78125 -5.523438 4.4375 -5.703125 4 -5.703125 C 3.570312 -5.703125 3.234375 -5.523438 2.984375 -5.171875 C 2.734375 -4.828125 2.609375 -4.367188 2.609375 -3.796875 Z M 2.609375 -3.796875 "/></g></g></g><g fill="#ffffff" fill-opacity="1"><g transform="translate(0.783035, 27.295358)"><g><path d="M 0.21875 -5.34375 C 0.21875 -5.757812 0.304688 -6.117188 0.484375 -6.421875 C 0.671875 -6.722656 0.914062 -6.972656 1.21875 -7.171875 C 1.53125 -7.367188 1.867188 -7.515625 2.234375 -7.609375 C 2.609375 -7.710938 2.992188 -7.765625 3.390625 -7.765625 C 3.734375 -7.765625 4.085938 -7.734375 4.453125 -7.671875 C 4.816406 -7.609375 5.160156 -7.519531 5.484375 -7.40625 C 5.816406 -7.300781 6.09375 -7.175781 6.3125 -7.03125 C 6.25 -6.84375 6.175781 -6.617188 6.09375 -6.359375 C 6.007812 -6.109375 5.929688 -5.847656 5.859375 -5.578125 C 5.785156 -5.304688 5.722656 -5.054688 5.671875 -4.828125 C 5.578125 -4.921875 5.429688 -5.023438 5.234375 -5.140625 C 5.035156 -5.253906 4.800781 -5.359375 4.53125 -5.453125 C 4.269531 -5.554688 4.003906 -5.640625 3.734375 -5.703125 C 3.460938 -5.765625 3.207031 -5.796875 2.96875 -5.796875 C 2.59375 -5.796875 2.40625 -5.679688 2.40625 -5.453125 C 2.40625 -5.328125 2.5 -5.222656 2.6875 -5.140625 C 2.875 -5.054688 3.113281 -4.972656 3.40625 -4.890625 C 3.707031 -4.804688 4.023438 -4.707031 4.359375 -4.59375 C 4.691406 -4.476562 5.003906 -4.328125 5.296875 -4.140625 C 5.597656 -3.960938 5.84375 -3.734375 6.03125 -3.453125 C 6.21875 -3.179688 6.3125 -2.835938 6.3125 -2.421875 C 6.3125 -2.015625 6.21875 -1.648438 6.03125 -1.328125 C 5.851562 -1.003906 5.609375 -0.734375 5.296875 -0.515625 C 4.984375 -0.296875 4.632812 -0.128906 4.25 -0.015625 C 3.863281 0.0976562 3.46875 0.15625 3.0625 0.15625 C 2.488281 0.15625 1.976562 0.0859375 1.53125 -0.046875 C 1.09375 -0.179688 0.65625 -0.382812 0.21875 -0.65625 C 0.332031 -0.976562 0.429688 -1.320312 0.515625 -1.6875 C 0.609375 -2.050781 0.691406 -2.40625 0.765625 -2.75 C 0.859375 -2.664062 1.03125 -2.554688 1.28125 -2.421875 C 1.539062 -2.285156 1.84375 -2.164062 2.1875 -2.0625 C 2.539062 -1.957031 2.90625 -1.90625 3.28125 -1.90625 C 3.382812 -1.90625 3.5 -1.910156 3.625 -1.921875 C 3.757812 -1.941406 3.875 -1.976562 3.96875 -2.03125 C 4.0625 -2.082031 4.109375 -2.160156 4.109375 -2.265625 C 4.109375 -2.398438 4.015625 -2.507812 3.828125 -2.59375 C 3.640625 -2.675781 3.394531 -2.753906 3.09375 -2.828125 C 2.800781 -2.910156 2.488281 -3.003906 2.15625 -3.109375 C 1.832031 -3.210938 1.519531 -3.351562 1.21875 -3.53125 C 0.925781 -3.707031 0.6875 -3.941406 0.5 -4.234375 C 0.3125 -4.535156 0.21875 -4.90625 0.21875 -5.34375 Z M 0.21875 -5.34375 "/></g></g></g><g clip-path="url(#a7146a1575)"><g fill="#ffffff" fill-opacity="1"><g transform="translate(7.316566, 27.295358)"><g><path d="M 3.203125 3.15625 L 0.21875 3.15625 C 0.34375 3.039062 0.4375 2.851562 0.5 2.59375 C 0.5625 2.332031 0.59375 2.066406 0.59375 1.796875 L 0.59375 -6.25 C 0.59375 -6.53125 0.5625 -6.796875 0.5 -7.046875 C 0.4375 -7.304688 0.34375 -7.492188 0.21875 -7.609375 L 3.734375 -7.609375 C 4.429688 -7.609375 5.007812 -7.5 5.46875 -7.28125 C 5.925781 -7.0625 6.285156 -6.769531 6.546875 -6.40625 C 6.816406 -6.039062 7.003906 -5.628906 7.109375 -5.171875 C 7.222656 -4.722656 7.28125 -4.265625 7.28125 -3.796875 C 7.28125 -3.335938 7.234375 -2.878906 7.140625 -2.421875 C 7.046875 -1.960938 6.898438 -1.535156 6.703125 -1.140625 C 6.503906 -0.742188 6.25 -0.425781 5.9375 -0.1875 C 5.625 0.0390625 5.253906 0.15625 4.828125 0.15625 C 4.585938 0.15625 4.363281 0.117188 4.15625 0.046875 C 3.957031 -0.0234375 3.789062 -0.128906 3.65625 -0.265625 L 2.828125 -2.40625 L 2.828125 1.796875 C 2.828125 2.066406 2.859375 2.332031 2.921875 2.59375 C 2.984375 2.851562 3.078125 3.039062 3.203125 3.15625 Z M 3.46875 -5.53125 C 3.351562 -5.53125 3.238281 -5.523438 3.125 -5.515625 C 3.019531 -5.515625 2.921875 -5.5 2.828125 -5.46875 L 2.828125 -2.78125 C 2.953125 -2.53125 3.109375 -2.320312 3.296875 -2.15625 C 3.484375 -1.988281 3.734375 -1.90625 4.046875 -1.90625 C 4.734375 -1.90625 5.078125 -2.472656 5.078125 -3.609375 C 5.078125 -4.160156 4.945312 -4.617188 4.6875 -4.984375 C 4.425781 -5.347656 4.019531 -5.53125 3.46875 -5.53125 Z M 3.46875 -5.53125 "/></g></g></g></g><g fill="#ffffff" fill-opacity="1"><g transform="translate(14.9137, 27.295358)"><g><path d="M 0.109375 -6.53125 C 0.453125 -6.9375 0.859375 -7.242188 1.328125 -7.453125 C 1.804688 -7.660156 2.351562 -7.765625 2.96875 -7.765625 C 3.488281 -7.765625 3.988281 -7.695312 4.46875 -7.5625 C 4.945312 -7.425781 5.367188 -7.21875 5.734375 -6.9375 C 6.097656 -6.664062 6.390625 -6.328125 6.609375 -5.921875 C 6.828125 -5.523438 6.9375 -5.054688 6.9375 -4.515625 L 6.9375 -2.328125 C 6.9375 -2.128906 6.953125 -1.925781 6.984375 -1.71875 C 7.023438 -1.519531 7.101562 -1.351562 7.21875 -1.21875 C 7.34375 -1.082031 7.535156 -1.015625 7.796875 -1.015625 L 7.796875 -0.96875 C 7.585938 -0.851562 7.363281 -0.726562 7.125 -0.59375 C 6.894531 -0.46875 6.671875 -0.347656 6.453125 -0.234375 C 6.242188 -0.117188 6.054688 -0.0234375 5.890625 0.046875 C 5.734375 0.117188 5.625 0.15625 5.5625 0.15625 C 5.375 0.15625 5.21875 0.0820312 5.09375 -0.0625 C 4.96875 -0.21875 4.875 -0.410156 4.8125 -0.640625 C 4.75 -0.867188 4.71875 -1.085938 4.71875 -1.296875 L 4.71875 -2.453125 C 4.570312 -2.234375 4.414062 -1.992188 4.25 -1.734375 C 4.082031 -1.472656 3.921875 -1.21875 3.765625 -0.96875 C 3.609375 -0.726562 3.472656 -0.523438 3.359375 -0.359375 C 3.316406 -0.273438 3.1875 -0.164062 2.96875 -0.03125 C 2.75 0.09375 2.488281 0.15625 2.1875 0.15625 C 1.738281 0.15625 1.375 0.0664062 1.09375 -0.109375 C 0.8125 -0.285156 0.609375 -0.523438 0.484375 -0.828125 C 0.359375 -1.128906 0.296875 -1.460938 0.296875 -1.828125 C 0.296875 -2.210938 0.382812 -2.570312 0.5625 -2.90625 C 0.738281 -3.238281 0.976562 -3.523438 1.28125 -3.765625 C 1.582031 -4.015625 1.925781 -4.210938 2.3125 -4.359375 C 2.695312 -4.503906 3.097656 -4.578125 3.515625 -4.578125 C 3.941406 -4.578125 4.320312 -4.5 4.65625 -4.34375 C 4.5625 -4.769531 4.367188 -5.101562 4.078125 -5.34375 C 3.785156 -5.59375 3.425781 -5.71875 3 -5.71875 C 2.601562 -5.71875 2.25 -5.644531 1.9375 -5.5 C 1.632812 -5.351562 1.382812 -5.125 1.1875 -4.8125 C 1.007812 -5.15625 0.835938 -5.453125 0.671875 -5.703125 C 0.503906 -5.960938 0.316406 -6.238281 0.109375 -6.53125 Z M 2.609375 -2.671875 C 2.609375 -2.492188 2.664062 -2.328125 2.78125 -2.171875 C 2.894531 -2.023438 3.097656 -1.953125 3.390625 -1.953125 C 3.640625 -1.953125 3.878906 -2.03125 4.109375 -2.1875 C 4.347656 -2.351562 4.550781 -2.570312 4.71875 -2.84375 L 4.71875 -3.8125 C 4.71875 -3.875 4.710938 -3.929688 4.703125 -3.984375 C 4.703125 -4.046875 4.695312 -4.101562 4.6875 -4.15625 C 4.625 -4.195312 4.550781 -4.222656 4.46875 -4.234375 C 4.394531 -4.253906 4.316406 -4.265625 4.234375 -4.265625 C 3.929688 -4.265625 3.65625 -4.175781 3.40625 -4 C 3.164062 -3.832031 2.972656 -3.625 2.828125 -3.375 C 2.679688 -3.132812 2.609375 -2.898438 2.609375 -2.671875 Z M 2.609375 -2.671875 "/></g></g></g><g fill="#ffffff" fill-opacity="1"><g transform="translate(22.380598, 27.295358)"><g><path d="M 0.328125 -3.796875 C 0.328125 -4.335938 0.40625 -4.84375 0.5625 -5.3125 C 0.71875 -5.789062 0.957031 -6.210938 1.28125 -6.578125 C 1.601562 -6.953125 2.003906 -7.242188 2.484375 -7.453125 C 2.972656 -7.660156 3.539062 -7.765625 4.1875 -7.765625 C 4.65625 -7.765625 5.0625 -7.703125 5.40625 -7.578125 C 5.757812 -7.453125 6.050781 -7.304688 6.28125 -7.140625 C 6.507812 -6.972656 6.679688 -6.820312 6.796875 -6.6875 C 6.910156 -6.5625 6.96875 -6.5 6.96875 -6.5 C 6.75 -6.269531 6.523438 -6.007812 6.296875 -5.71875 C 6.078125 -5.4375 5.882812 -5.171875 5.71875 -4.921875 C 5.601562 -5.171875 5.421875 -5.375 5.171875 -5.53125 C 4.929688 -5.6875 4.660156 -5.765625 4.359375 -5.765625 C 4.023438 -5.765625 3.726562 -5.675781 3.46875 -5.5 C 3.207031 -5.332031 3 -5.097656 2.84375 -4.796875 C 2.6875 -4.503906 2.609375 -4.171875 2.609375 -3.796875 C 2.609375 -3.242188 2.742188 -2.804688 3.015625 -2.484375 C 3.296875 -2.160156 3.6875 -2 4.1875 -2 C 4.445312 -2 4.671875 -2.050781 4.859375 -2.15625 C 5.054688 -2.269531 5.21875 -2.394531 5.34375 -2.53125 C 5.46875 -2.675781 5.554688 -2.796875 5.609375 -2.890625 C 5.796875 -2.609375 6.007812 -2.332031 6.25 -2.0625 C 6.5 -1.800781 6.734375 -1.570312 6.953125 -1.375 C 6.640625 -0.863281 6.222656 -0.476562 5.703125 -0.21875 C 5.191406 0.0273438 4.648438 0.15625 4.078125 0.15625 C 3.441406 0.15625 2.882812 0.0507812 2.40625 -0.15625 C 1.9375 -0.363281 1.546875 -0.648438 1.234375 -1.015625 C 0.929688 -1.378906 0.703125 -1.800781 0.546875 -2.28125 C 0.398438 -2.757812 0.328125 -3.265625 0.328125 -3.796875 Z M 0.328125 -3.796875 "/></g></g></g><g fill="#ffffff" fill-opacity="1"><g transform="translate(29.348253, 27.295358)"><g><path d="M 4.078125 0.15625 C 3.441406 0.15625 2.882812 0.0507812 2.40625 -0.15625 C 1.9375 -0.363281 1.546875 -0.648438 1.234375 -1.015625 C 0.929688 -1.378906 0.703125 -1.800781 0.546875 -2.28125 C 0.398438 -2.757812 0.328125 -3.265625 0.328125 -3.796875 C 0.328125 -4.335938 0.40625 -4.84375 0.5625 -5.3125 C 0.71875 -5.789062 0.957031 -6.210938 1.28125 -6.578125 C 1.601562 -6.953125 2.003906 -7.242188 2.484375 -7.453125 C 2.972656 -7.660156 3.539062 -7.765625 4.1875 -7.765625 C 4.738281 -7.765625 5.21875 -7.648438 5.625 -7.421875 C 6.039062 -7.191406 6.363281 -6.894531 6.59375 -6.53125 C 6.820312 -6.175781 6.9375 -5.8125 6.9375 -5.4375 C 6.9375 -5.070312 6.835938 -4.71875 6.640625 -4.375 C 6.453125 -4.03125 6.140625 -3.75 5.703125 -3.53125 C 5.265625 -3.320312 4.675781 -3.21875 3.9375 -3.21875 L 2.65625 -3.21875 C 2.75 -2.84375 2.925781 -2.546875 3.1875 -2.328125 C 3.445312 -2.109375 3.78125 -2 4.1875 -2 C 4.445312 -2 4.671875 -2.050781 4.859375 -2.15625 C 5.054688 -2.269531 5.21875 -2.394531 5.34375 -2.53125 C 5.46875 -2.675781 5.554688 -2.796875 5.609375 -2.890625 C 5.796875 -2.609375 6.007812 -2.332031 6.25 -2.0625 C 6.5 -1.800781 6.734375 -1.570312 6.953125 -1.375 C 6.640625 -0.863281 6.222656 -0.476562 5.703125 -0.21875 C 5.191406 0.0273438 4.648438 0.15625 4.078125 0.15625 Z M 2.640625 -3.34375 C 2.984375 -3.40625 3.316406 -3.519531 3.640625 -3.6875 C 3.972656 -3.851562 4.242188 -4.054688 4.453125 -4.296875 C 4.671875 -4.546875 4.78125 -4.828125 4.78125 -5.140625 C 4.78125 -5.285156 4.726562 -5.425781 4.625 -5.5625 C 4.519531 -5.695312 4.351562 -5.765625 4.125 -5.765625 C 3.914062 -5.765625 3.691406 -5.691406 3.453125 -5.546875 C 3.222656 -5.398438 3.023438 -5.175781 2.859375 -4.875 C 2.691406 -4.582031 2.609375 -4.222656 2.609375 -3.796875 C 2.609375 -3.640625 2.617188 -3.488281 2.640625 -3.34375 Z M 2.640625 -3.34375 "/></g></g></g></g></g></svg>